PLOT

The Orphan Killer is a tour de force murder flick that defies classification. It goes far beyond current trends in gore and breaks
open a new suffering genre of horror..

Encoded By .......: BigPerm
Runtime ..........: 1h 22mn
File Size ........: 768 MB
Resolution .......: 640 x 272 
http://www.imdb.com/title/tt1179071/
Genre ............: Horror
Language .........: English
Subtitles ........: None
Video
ID : 0
Format : MPEG-4 Visual
Format profile : Advanced Simple@L5
Format settings, BVOP : Yes
Format settings, QPel : No
Format settings, GMC : No warppoints
Format settings, Matrix : Default (H.263)
Muxing mode : Packed bitstream
Codec ID : XVID
Codec ID/Hint : XviD
Duration : 1h 22mn
Bit rate : 846 Kbps
Width : 640 pixels
Height : 272 pixels
Display aspect ratio : 2.35:1
Frame rate : 23.976 fps
Color space : YUV
Chroma subsampling : 4:2:0
Bit depth : 8 bits
Scan type : Progressive
Compression mode : Lossy
Bits/(Pixel*Frame) : 0.203
Stream size : 499 MiB (65%)
Writing library : XviD 1.2.1 (UTC 2008-12-04)

Audio
ID : 1
Format : AC-3
Format/Info : Audio Coding 3
Mode extension : CM (complete main)
Codec ID : 2000
Duration : 1h 22mn
Bit rate mode : Constant
Bit rate : 448 Kbps
Channel(s) : 6 channels
Channel positions : Front: L C R, Side: L R, LFE
Sampling rate : 48.0 KHz
Bit depth : 16 bits
Compression mode : Lossy
Video delay : 19ms
Stream size : 264 MiB (34%)
Alignment : Split accross interleaves
Interleave, duration : 42 ms (1.00 video frame)
Interleave, preload duration : 500 ms